#!OML:ASF F:\VICON\USERDATA\INSTALL\rory3\rory3.ASF
:FULLY-SPECIFIED
:DEGREES
344
root -0.0374352 15.742 20.4068 1.23681 3.92098 5.39198
lowerback 12.1799 -0.669805 -8.62873
upperback -5.24799 -2.25207 1.40228
thorax -12.3228 -0.291193 6.94772
lowerneck -8.95374 -5.56475 -4.75493
upperneck 19.2134 -7.63751 3.61245
head 7.71362 -3.67005 1.2469
rclavicle -3.67752e-015 7.95139e-016
rhumerus -46.3432 -10.4722 -75.447
rradius 19.5554
rwrist 4.74469
rhand -8.94677 19.3358
rfingers 7.12502
rthumb 16.9977 -9.94046
lclavicle -3.67752e-015 7.95139e-016
lhumerus -37.9655 8.60752 83.9946
lradius 22.875
lwrist 0.638775
lhand -5.37133 19.5153
lfingers 7.12502
lthumb 20.4366 48.4599
rfemur -30.6272 16.9828 13.187
rtibia 30.0518
rfoot -6.6813 -14.4736
rtoes 20.3888
lfemur 23.1687 -7.93738 -32.7418
ltibia 10.0176
lfoot -8.5314 -0.9808
ltoes -2.29856
345
root -0.0617765 15.7431 20.5549 1.17668 3.90889 5.34476
lowerback 12.1332 -0.686775 -8.7406
upperback -5.18464 -2.28066 1.4583
thorax -12.2116 -0.301571 7.07625
lowerneck -8.73172 -5.49286 -4.71686
upperneck 18.9558 -7.55589 3.68061
head 7.58627 -3.62761 1.27987
rclavicle -7.20594e-015 1.74931e-014
rhumerus -45.6342 -10.7064 -75.3094
rradius 19.5122
rwrist 5.0578
rhand -8.89105 18.7155
rfingers 7.12502
rthumb 17.0513 -10.5561
lclavicle -7.20594e-015 1.74931e-014
lhumerus -38.2812 9.11701 83.6219
lradius 22.1525
lwrist 0.0687209
lhand -5.34474 19.4895
lfingers 7.12502
lthumb 20.4622 48.4313
rfemur -30.3441 16.4302 13.7472
rtibia 30.7382
rfoot -6.52433 -13.8456
rtoes 20.3614
lfemur 21.1695 -7.07814 -32.1183
ltibia 14.0625
lfoot -8.37849 -2.02934
ltoes -2.98098
346
root -0.0889687 15.748 20.6919 1.08333 3.7354 4.88354
lowerback 12.2259 -0.653921 -8.47758
upperback -5.09409 -2.17663 1.62087
thorax -12.1811 -0.269691 7.08832
lowerneck -9.02347 -5.48118 -4.59333
upperneck 19.0278 -7.54592 3.65467
head 7.65564 -3.6113 1.2435
rclavicle 2.05245e-014 1.03368e-014
rhumerus -44.7568 -11.4116 -74.9218
rradius 19.28
rwrist 5.89782
rhand -8.74257 18.5798
rfingers 7.12502
rthumb 17.1942 -10.6795
lclavicle 2.05245e-014 1.03368e-014
lhumerus -38.5436 9.51312 83.3542
lradius 21.5612
lwrist -0.374971
lhand -5.63209 19.3037
lfingers 7.12502
lthumb 20.186 48.2749
rfemur -30.0889 16.3437 14.701
rtibia 31.3268
rfoot -6.13106 -13.7104
rtoes 18.5461
lfemur 19.2839 -5.99413 -30.9393
ltibia 17.7008
lfoot -7.71058 -3.23409
ltoes -3.85695
347
root -0.114558 15.7488 20.8319 0.944028 3.54807 4.52412
lowerback 12.4745 -0.563163 -8.24365
upperback -5.10742 -2.02282 1.73724
thorax -12.3763 -0.19715 7.06535
lowerneck -9.23836 -5.52029 -4.5921
upperneck 19.294 -7.59162 3.59581
head 7.78177 -3.63297 1.21093
rclavicle 1.87852e-014 -1.11319e-014
rhumerus -44.1974 -11.9241 -74.5984
rradius 19.1929
rwrist 6.28428
rhand -8.68139 18.7157
rfingers 7.12502
rthumb 17.2531 -10.5384
lclavicle 1.87852e-014 -1.11319e-014
lhumerus -39.0181 9.88319 83.0645
lradius 20.909
lwrist -1.09917
lhand -5.91416 19.0222
lfingers 7.12502
lthumb 19.9149 48.0218
rfemur -29.6915 16.1821 15.567
rtibia 31.8054
rfoot -5.83477 -13.4265
rtoes 16.6359
lfemur 17.5877 -4.85675 -29.8491
ltibia 21.148
lfoot -6.58892 -4.4078
ltoes -3.28768
348
root -0.138051 15.7516 20.9815 0.826007 3.46748 4.43839
lowerback 12.554 -0.524763 -8.23944
upperback -5.12782 -1.97767 1.74192
thorax -12.4569 -0.17031 7.06303
lowerneck -9.1131 -5.4988 -4.47021
upperneck 19.323 -7.57905 3.54542
head 7.76116 -3.62481 1.17943
rclavicle -1.35671e-014 -2.22639e-014
rhumerus -43.7309 -12.5022 -74.282
rradius 19.0908
rwrist 6.86883
rhand -8.78694 19.0912
rfingers 7.12502
rthumb 17.1515 -10.1717
lclavicle -1.35671e-014 -2.22639e-014
lhumerus -39.4903 10.463 82.5201
lradius 20.0621
lwrist -2.17012
lhand -5.78286 18.6888
lfingers 7.12502
lthumb 20.0411 47.6752
rfemur -29.2025 16.1155 16.0646
rtibia 32.2424
rfoot -6.2096 -12.9833
rtoes 16.6999
lfemur 16.0252 -3.92625 -29.1211
ltibia 24.3365
lfoot -5.11308 -5.28784
ltoes -3.45405
